# xmcd
#
# Track frame offsets:
#	150
#	16877
#	30679
#	41931
#	53483
#	65260
#	77562
#	90239
#	101266
#	117918
#	129470
#	142597
#	158124
#	170426
#	184003
#	199905
#
# Disc length: 2791 seconds
#
# Revision: 0
# Processed by: cddbd v1.5.2PL0 Copyright (c) Steve Scherf et al.
# Submitted via: audiograbber 1.83.01
#
DISCID=bf0ae510
DTITLE=Various Artist - party tyme karaoke - country classics
DYEAR=1900
DGENRE=Karaoke
TTITLE0=Kenny Rogers - Lucille
TTITLE1=Lynn Anderson - Rose Garden
TTITLE2=Willie Nelson - On the Road Again
TTITLE3=Sammi Smith - Help Me Make it Through the Night
TTITLE4=John Denver - Take Me Home, Country Roads
TTITLE5=Tammy Wynette - Stand By Your Man
TTITLE6=Osmond Brothers - Rocky Top
TTITLE7=Crystal Gayle - Don't it Mak My Brown Eyes Blue
TTITLE8=Kenny Rogers - The Gambler
TTITLE9=Marie Osmond - Paper Roses
TTITLE10=The Oak Ridge Boys - Elvira
TTITLE11=Jeannie C. Riley - Harper Valley PTA
TTITLE12=Glen Campbell - By the Time I Get to Phoenix
TTITLE13=Tanya Tucker - Delta Dawn
TTITLE14=Willie Nelson - Always on My Mind
TTITLE15=Charley Pride - Kiss an Angel Good Mornin'
EXTD=
EXTT0=
EXTT1=
EXTT2=
EXTT3=
EXTT4=
EXTT5=
EXTT6=
EXTT7=
EXTT8=
EXTT9=
EXTT10=
EXTT11=
EXTT12=
EXTT13=
EXTT14=
EXTT15=
PLAYORDER=
